<?xml version="1.0" encoding="UTF-8"?><svg xmlns="http://www.w3.org/2000/svg" width="339.251" height="385.476" viewBox="0 0 339.251 385.476"><g id="a"/><g id="b"><g id="c"><path d="M206.0809,384.74h71c7.677,0,21.376,2.622,27.87-2.032,9.497-6.8069,5.13-29.664,5.13-39.968v-115c8.337,0,19.336,2.187,25.57-4.62,4.757-5.192,3.43-13.91,3.43-20.38v-49c0-6.431,1.021-14.866-4.147-19.722-7.513-7.058-22.435-4.278-31.853-4.278h-83v-1c14.002-3.995,27.196-12.401,39-20.721,8.29-5.842,15.648-12.6113,21.026-21.279,17.772-28.6433,4.001-69.8254-27.026-82.3943-32.817-13.2941-70.871,5.7565-83,38.3943-6.464-12.1353-15.591-25.3911-27.286-32.9969-45.043-29.2933-102.5171,11.9658-89.1044,63.9969,4.006,15.5404,15.7058,26.6573,28.4294,35.485,11.202,7.772,23.761,15.749,36.961,19.515v1H37.0809c-9.5574,0-24.3011-2.852-31.8912,4.225C-.6322,139.393,.0809,147.473,.0809,154.74v47c0,7.325-1.032,15.98,4.2778,21.891,5.7291,6.378,16.9787,4.109,24.7222,4.109v115c0,10.355-4.3072,32.787,5.2631,39.713,6.6613,4.821,19.8918,2.287,27.7369,2.287h71M97.1899,70.6497c-7.935-8.2637-6.383-22.5552,2.906-29.1057,9.188-6.4794,18.854-1.1745,25.228,6.2354,11.481,13.3463,21.17,32.4458,23.757,49.9606-17.908-4.0956-38.987-13.6521-51.891-27.0903Zm92.891,27.0903c.774-16.9016,13.779-38.5593,24.758-50.9105,6.65-7.4816,16.505-11.3386,25.227-4.5563,9.785,7.6087,9.415,21.0281,.975,29.4236-12.303,12.2374-33.736,23.509-50.96,26.0432Z" style="fill:#ff8484;"/><rect x="131.625" y="132.6225" width="79.007" height="251.1155" style="fill:#44ffd2;"/></g></g></svg>