<?xml version="1.0" standalone="no"?>
<!DOCTYPE svg PUBLIC "-//W3C//DTD SVG 20010904//EN"
 "http://www.w3.org/TR/2001/REC-SVG-20010904/DTD/svg10.dtd">
<svg version="1.0" xmlns="http://www.w3.org/2000/svg"
 width="770.000000pt" height="770.000000pt" viewBox="0 0 770.000000 770.000000"
 preserveAspectRatio="xMidYMid meet">
<metadata>
Created by potrace 1.14, written by Peter Selinger 2001-2017
</metadata>
<g transform="translate(0.000000,770.000000) scale(0.100000,-0.100000)"
fill="#000000" stroke="none">
<path d="M2525 7690 c-506 -80 -897 -448 -1001 -942 -21 -101 -24 -301 -5
-408 40 -228 135 -410 302 -581 212 -216 660 -503 937 -599 51 -18 92 -37 92
-42 0 -6 -394 -9 -1042 -8 l-1043 2 -68 -22 c-90 -28 -163 -97 -198 -185 l-24
-60 0 -725 0 -725 24 -60 c15 -37 41 -78 70 -107 68 -68 124 -82 324 -80 l157
2 0 -1183 c0 -790 -4 -1239 -11 -1354 -25 -369 31 -535 197 -588 45 -14 86
-18 169 -17 61 1 1089 4 2285 8 1667 4 2232 3 2420 -7 217 -11 254 -10 323 4
43 9 93 25 112 37 83 51 127 179 126 367 0 59 -3 698 -6 1420 l-6 1311 183 4
c176 3 185 5 240 31 65 32 109 80 135 146 16 42 18 106 21 757 3 785 1 818
-56 899 -35 50 -113 97 -189 115 -46 10 -265 12 -1095 11 -678 -2 -1038 1
-1038 7 0 6 35 22 78 36 222 74 596 295 832 492 213 177 346 375 411 609 30
112 38 363 15 487 -147 785 -929 1174 -1663 827 -266 -126 -498 -359 -626
-628 l-44 -92 -60 103 c-238 406 -496 621 -862 715 -109 28 -313 39 -416 23z
m223 -783 c34 -12 89 -42 122 -66 144 -105 360 -431 468 -706 66 -167 121
-385 97 -385 -26 0 -225 61 -325 101 -243 94 -460 221 -621 362 -142 124 -184
210 -177 360 7 165 109 302 258 348 46 14 115 9 178 -14z m2440 -7 c141 -63
234 -222 217 -374 -14 -130 -72 -222 -214 -339 -185 -155 -447 -301 -671 -374
-127 -42 -246 -70 -256 -60 -11 11 27 187 62 288 51 147 135 312 235 464 178
266 297 380 436 415 51 12 137 4 191 -20z m-518 -4355 l0 -2505 -785 0 -785 0
0 2505 0 2505 785 0 785 0 0 -2505z"/>
</g>
</svg>
